<svg xmlns="http://www.w3.org/2000/svg" viewBox="0 0 512 512" role="img" aria-labelledby="prepKingTitle prepKingDesc">
  <title id="prepKingTitle">Prep King logo</title>
  <desc id="prepKingDesc">Orange rounded square with a white king chess piece</desc>
  <defs>
    <linearGradient id="bg" x1="0" y1="0" x2="1" y2="1">
      <stop offset="0%" stop-color="#ff8a1f" />
      <stop offset="100%" stop-color="#ff7a00" />
    </linearGradient>
  </defs>

  <rect x="20" y="20" width="472" height="472" rx="84" fill="url(#bg)" />

  <rect x="238" y="100" width="36" height="84" rx="8" fill="#ffffff" />
  <rect x="214" y="124" width="84" height="36" rx="8" fill="#ffffff" />

  <path d="M 192 206 C 192 186, 320 186, 320 206 C 320 214, 314 222, 306 226 L 284 288 L 228 288 L 206 226 C 198 222, 192 214, 192 206 Z" fill="#ffffff" />

  <ellipse cx="256" cy="300" rx="52" ry="14" fill="#ffffff" />

  <path d="M 216 312 L 296 312 C 300 352, 294 384, 278 410 L 234 410 C 218 384, 212 352, 216 312 Z" fill="#ffffff" />

  <path d="M 208 412 H 304 L 326 438 V 458 H 186 V 438 Z" fill="#ffffff" />
  <ellipse cx="256" cy="458" rx="96" ry="12" fill="#ffffff" />
</svg>
